# xmcd CD database file
#
# Track frame offsets:
#	150
#	10808
#	19453
#	30128
#	40540
#	52440
#	61765
#	72123
#	82400
#	93988
#	105758
#	115673
#	125215
#
# Disc length: 1811 seconds
#
# Revision: 2
# Processed by: cddbd v1.5.1PL0 Copyright (c) Steve Scherf et al.
# Submitted via: CDex 1.51
#
DISCID=a307110d
DTITLE=Patsy Cline - The Rockin' Side: Her First Recordings, Vol. 3
DYEAR=1900
DGENRE=Rock n' Roll
TTITLE0=Gotta Lot Of Rhythm In My Soul
TTITLE1=Ain't No Wheels On This Ship
TTITLE2=I Don't Wanta
TTITLE3=I Love You, Honey
TTITLE4=Never No More
TTITLE5=Love, Love, Love Me Honey Do
TTITLE6=Walkin' Dream
TTITLE7=Too Many Secrets
TTITLE8=In Care Of The Blues
TTITLE9=Let The Teardrops Fall
TTITLE10=Turn The Cards Slowly
TTITLE11=I'm Moving Along
TTITLE12=Stop, Look And Listen
EXTD=
EXTT0=
EXTT1=
EXTT2=
EXTT3=
EXTT4=
EXTT5=
EXTT6=
EXTT7=
EXTT8=
EXTT9=
EXTT10=
EXTT11=
EXTT12=
PLAYORDER=
